<?xml version="1.0" encoding="utf-8"?>
<svg width="64px" height="64px" viewBox="0 0 64 64" version="1.1" xmlns:xlink="http://www.w3.org/1999/xlink" xmlns="http://www.w3.org/2000/svg">
  <defs>
    <rect width="64" height="64" id="artboard_1" />
    <clipPath id="clip_1">
      <use xlink:href="#artboard_1" clip-rule="evenodd" />
    </clipPath>
  </defs>
  <g id="browser" clip-path="url(#clip_1)">
    <path d="M9.999 6L14.001 6Q14.1975 6 14.393 6.01926Q14.5885 6.03851 14.7812 6.07684Q14.9738 6.11517 15.1618 6.1722Q15.3498 6.22922 15.5313 6.30441Q15.7129 6.37959 15.8861 6.4722Q16.0594 6.56481 16.2227 6.67395Q16.3861 6.7831 16.5379 6.90773Q16.6898 7.03236 16.8287 7.17128Q16.9676 7.3102 17.0923 7.46206Q17.2169 7.61393 17.326 7.77727Q17.4352 7.94062 17.5278 8.11388Q17.6204 8.28715 17.6956 8.46865Q17.7708 8.65015 17.8278 8.83815Q17.8848 9.02615 17.9232 9.21883Q17.9615 9.41152 17.9807 9.60703Q18 9.80254 18 9.999L18 18.001Q18 18.1975 17.9807 18.393Q17.9615 18.5885 17.9232 18.7812Q17.8848 18.9738 17.8278 19.1618Q17.7708 19.3498 17.6956 19.5313Q17.6204 19.7129 17.5278 19.8861Q17.4352 20.0594 17.326 20.2227Q17.2169 20.3861 17.0923 20.5379Q16.9676 20.6898 16.8287 20.8287Q16.6898 20.9676 16.5379 21.0923Q16.3861 21.2169 16.2227 21.326Q16.0594 21.4352 15.8861 21.5278Q15.7129 21.6204 15.5313 21.6956Q15.3498 21.7708 15.1618 21.8278Q14.9738 21.8848 14.7812 21.9232Q14.5885 21.9615 14.393 21.9807Q14.1975 22 14.001 22L9.999 22Q9.80254 22 9.60703 21.9807Q9.41152 21.9615 9.21883 21.9232Q9.02615 21.8848 8.83815 21.8278Q8.65015 21.7708 8.46865 21.6956Q8.28715 21.6204 8.11388 21.5278Q7.94062 21.4352 7.77727 21.326Q7.61393 21.2169 7.46206 21.0923Q7.3102 20.9676 7.17128 20.8287Q7.03236 20.6898 6.90773 20.5379Q6.7831 20.3861 6.67395 20.2227Q6.56481 20.0594 6.4722 19.8861Q6.37959 19.7129 6.3044 19.5313Q6.22922 19.3498 6.17219 19.1618Q6.11517 18.9738 6.07684 18.7812Q6.03851 18.5885 6.01926 18.393Q6 18.1975 6 18.001L6 9.999Q6 9.80254 6.01926 9.60703Q6.03851 9.41152 6.07684 9.21883Q6.11517 9.02615 6.17219 8.83815Q6.22922 8.65015 6.3044 8.46865Q6.37959 8.28715 6.4722 8.11388Q6.56481 7.94062 6.67395 7.77727Q6.7831 7.61393 6.90773 7.46206Q7.03236 7.3102 7.17128 7.17128Q7.3102 7.03236 7.46206 6.90773Q7.61393 6.7831 7.77727 6.67395Q7.94062 6.56481 8.11388 6.4722Q8.28715 6.37959 8.46865 6.3044Q8.65015 6.22922 8.83815 6.1722Q9.02615 6.11517 9.21883 6.07684Q9.41152 6.03851 9.60703 6.01926Q9.80254 6 9.999 6L9.999 6Z" id="Rectangle" fill="none" fill-rule="evenodd" stroke="#CCCCCC" stroke-width="4" />
    <path d="M9.999 30L14.001 30Q14.1975 30 14.393 30.0193Q14.5885 30.0385 14.7812 30.0768Q14.9738 30.1152 15.1618 30.1722Q15.3498 30.2292 15.5313 30.3044Q15.7129 30.3796 15.8861 30.4722Q16.0594 30.5648 16.2227 30.674Q16.3861 30.7831 16.5379 30.9077Q16.6898 31.0324 16.8287 31.1713Q16.9676 31.3102 17.0923 31.4621Q17.2169 31.6139 17.326 31.7773Q17.4352 31.9406 17.5278 32.1139Q17.6204 32.2871 17.6956 32.4686Q17.7708 32.6502 17.8278 32.8382Q17.8848 33.0261 17.9232 33.2188Q17.9615 33.4115 17.9807 33.607Q18 33.8025 18 33.999L18 54.001Q18 54.1975 17.9807 54.393Q17.9615 54.5885 17.9232 54.7812Q17.8848 54.9738 17.8278 55.1618Q17.7708 55.3498 17.6956 55.5313Q17.6204 55.7129 17.5278 55.8861Q17.4352 56.0594 17.326 56.2227Q17.2169 56.3861 17.0923 56.5379Q16.9676 56.6898 16.8287 56.8287Q16.6898 56.9676 16.5379 57.0923Q16.3861 57.2169 16.2227 57.326Q16.0594 57.4352 15.8861 57.5278Q15.7129 57.6204 15.5313 57.6956Q15.3498 57.7708 15.1618 57.8278Q14.9738 57.8848 14.7812 57.9232Q14.5885 57.9615 14.393 57.9807Q14.1975 58 14.001 58L9.999 58Q9.80254 58 9.60703 57.9807Q9.41152 57.9615 9.21883 57.9232Q9.02615 57.8848 8.83815 57.8278Q8.65015 57.7708 8.46865 57.6956Q8.28715 57.6204 8.11388 57.5278Q7.94062 57.4352 7.77727 57.326Q7.61393 57.2169 7.46206 57.0923Q7.3102 56.9676 7.17128 56.8287Q7.03236 56.6898 6.90773 56.5379Q6.7831 56.3861 6.67395 56.2227Q6.56481 56.0594 6.4722 55.8861Q6.37959 55.7129 6.3044 55.5313Q6.22922 55.3498 6.17219 55.1618Q6.11517 54.9739 6.07684 54.7812Q6.03851 54.5885 6.01926 54.393Q6 54.1975 6 54.001L6 33.999Q6 33.8025 6.01926 33.607Q6.03851 33.4115 6.07684 33.2188Q6.11517 33.0261 6.17219 32.8382Q6.22922 32.6502 6.3044 32.4686Q6.37959 32.2871 6.4722 32.1139Q6.56481 31.9406 6.67395 31.7773Q6.7831 31.6139 6.90773 31.4621Q7.03236 31.3102 7.17128 31.1713Q7.3102 31.0324 7.46206 30.9077Q7.61393 30.7831 7.77727 30.674Q7.94062 30.5648 8.11388 30.4722Q8.28715 30.3796 8.46865 30.3044Q8.65015 30.2292 8.83815 30.1722Q9.02615 30.1152 9.21883 30.0768Q9.41152 30.0385 9.60703 30.0193Q9.80254 30 9.999 30L9.999 30Z" id="Rectangle-Copy-3" fill="none" fill-rule="evenodd" stroke="#CCCCCC" stroke-width="4" />
    <path d="M29.999 46L34.001 46Q34.1975 46 34.393 46.0193Q34.5885 46.0385 34.7812 46.0768Q34.9738 46.1152 35.1618 46.1722Q35.3498 46.2292 35.5313 46.3044Q35.7129 46.3796 35.8861 46.4722Q36.0594 46.5648 36.2227 46.674Q36.3861 46.7831 36.5379 46.9077Q36.6898 47.0324 36.8287 47.1713Q36.9676 47.3102 37.0923 47.4621Q37.2169 47.6139 37.326 47.7773Q37.4352 47.9406 37.5278 48.1139Q37.6204 48.2871 37.6956 48.4686Q37.7708 48.6501 37.8278 48.8381Q37.8848 49.0261 37.9232 49.2188Q37.9615 49.4115 37.9807 49.607Q38 49.8025 38 49.999L38 54.001Q38 54.1975 37.9807 54.393Q37.9615 54.5885 37.9232 54.7812Q37.8848 54.9738 37.8278 55.1618Q37.7708 55.3498 37.6956 55.5313Q37.6204 55.7129 37.5278 55.8861Q37.4352 56.0594 37.326 56.2227Q37.2169 56.3861 37.0923 56.5379Q36.9676 56.6898 36.8287 56.8287Q36.6898 56.9676 36.5379 57.0923Q36.3861 57.2169 36.2227 57.326Q36.0594 57.4352 35.8861 57.5278Q35.7129 57.6204 35.5313 57.6956Q35.3498 57.7708 35.1618 57.8278Q34.9738 57.8848 34.7812 57.9232Q34.5885 57.9615 34.393 57.9807Q34.1975 58 34.001 58L29.999 58Q29.8025 58 29.607 57.9807Q29.4115 57.9615 29.2188 57.9232Q29.0262 57.8848 28.8382 57.8278Q28.6502 57.7708 28.4686 57.6956Q28.2871 57.6204 28.1139 57.5278Q27.9406 57.4352 27.7773 57.326Q27.6139 57.2169 27.4621 57.0923Q27.3102 56.9676 27.1713 56.8287Q27.0324 56.6898 26.9077 56.5379Q26.7831 56.3861 26.6739 56.2227Q26.5648 56.0594 26.4722 55.8861Q26.3796 55.7129 26.3044 55.5313Q26.2292 55.3498 26.1722 55.1618Q26.1152 54.9739 26.0768 54.7812Q26.0385 54.5885 26.0193 54.393Q26 54.1975 26 54.001L26 49.999Q26 49.8025 26.0193 49.607Q26.0385 49.4115 26.0768 49.2188Q26.1152 49.0262 26.1722 48.8382Q26.2292 48.6502 26.3044 48.4686Q26.3796 48.2871 26.4722 48.1139Q26.5648 47.9406 26.674 47.7773Q26.7831 47.6139 26.9077 47.4621Q27.0324 47.3102 27.1713 47.1713Q27.3102 47.0324 27.4621 46.9077Q27.6139 46.7831 27.7773 46.674Q27.9406 46.5648 28.1139 46.4722Q28.2871 46.3796 28.4686 46.3044Q28.6502 46.2292 28.8382 46.1722Q29.0262 46.1152 29.2188 46.0768Q29.4115 46.0385 29.607 46.0193Q29.8025 46 29.999 46Z" id="Rectangle-Copy-4" fill="none" fill-rule="evenodd" stroke="#CCCCCC" stroke-width="4" />
    <path d="M49.999 42L54.001 42Q54.1975 42 54.393 42.0193Q54.5885 42.0385 54.7812 42.0768Q54.9738 42.1152 55.1618 42.1722Q55.3498 42.2292 55.5313 42.3044Q55.7129 42.3796 55.8861 42.4722Q56.0594 42.5648 56.2227 42.674Q56.3861 42.7831 56.5379 42.9077Q56.6898 43.0324 56.8287 43.1713Q56.9676 43.3102 57.0923 43.4621Q57.2169 43.6139 57.326 43.7773Q57.4352 43.9406 57.5278 44.1139Q57.6204 44.2871 57.6956 44.4686Q57.7708 44.6502 57.8278 44.8382Q57.8848 45.0261 57.9232 45.2188Q57.9615 45.4115 57.9807 45.607Q58 45.8025 58 45.999L58 54.001Q58 54.1975 57.9807 54.393Q57.9615 54.5885 57.9232 54.7812Q57.8848 54.9738 57.8278 55.1618Q57.7708 55.3498 57.6956 55.5313Q57.6204 55.7129 57.5278 55.8861Q57.4352 56.0594 57.326 56.2227Q57.2169 56.3861 57.0923 56.5379Q56.9676 56.6898 56.8287 56.8287Q56.6898 56.9676 56.5379 57.0923Q56.3861 57.2169 56.2227 57.326Q56.0594 57.4352 55.8861 57.5278Q55.7129 57.6204 55.5313 57.6956Q55.3498 57.7708 55.1618 57.8278Q54.9739 57.8848 54.7812 57.9232Q54.5885 57.9615 54.393 57.9807Q54.1975 58 54.001 58L49.999 58Q49.8025 58 49.607 57.9807Q49.4115 57.9615 49.2188 57.9232Q49.0262 57.8848 48.8382 57.8278Q48.6502 57.7708 48.4686 57.6956Q48.2871 57.6204 48.1139 57.5278Q47.9406 57.4352 47.7773 57.326Q47.6139 57.2169 47.4621 57.0923Q47.3102 56.9676 47.1713 56.8287Q47.0324 56.6898 46.9077 56.5379Q46.7831 56.3861 46.674 56.2227Q46.5648 56.0594 46.4722 55.8861Q46.3796 55.7129 46.3044 55.5313Q46.2292 55.3498 46.1722 55.1618Q46.1152 54.9739 46.0768 54.7812Q46.0385 54.5885 46.0193 54.393Q46 54.1975 46 54.001L46 45.999Q46 45.8025 46.0193 45.607Q46.0385 45.4115 46.0768 45.2188Q46.1152 45.0261 46.1722 44.8382Q46.2292 44.6502 46.3044 44.4686Q46.3796 44.2871 46.4722 44.1139Q46.5648 43.9406 46.674 43.7773Q46.7831 43.6139 46.9077 43.4621Q47.0324 43.3102 47.1713 43.1713Q47.3102 43.0324 47.4621 42.9077Q47.6139 42.7831 47.7773 42.6739Q47.9406 42.5648 48.1139 42.4722Q48.2871 42.3796 48.4686 42.3044Q48.6501 42.2292 48.8381 42.1722Q49.0261 42.1152 49.2188 42.0768Q49.4115 42.0385 49.607 42.0193Q49.8025 42 49.999 42Z" id="Rectangle-Copy-5" fill="none" fill-rule="evenodd" stroke="#CCCCCC" stroke-width="4" />
    <path d="M29.999 6L34.001 6Q34.1975 6 34.393 6.01926Q34.5885 6.03851 34.7812 6.07684Q34.9738 6.11517 35.1618 6.1722Q35.3498 6.22922 35.5313 6.30441Q35.7129 6.37959 35.8861 6.4722Q36.0594 6.56481 36.2227 6.67395Q36.3861 6.7831 36.5379 6.90773Q36.6898 7.03236 36.8287 7.17128Q36.9676 7.3102 37.0923 7.46206Q37.2169 7.61393 37.326 7.77727Q37.4352 7.94062 37.5278 8.11388Q37.6204 8.28715 37.6956 8.46865Q37.7708 8.65015 37.8278 8.83815Q37.8848 9.02615 37.9232 9.21883Q37.9615 9.41152 37.9807 9.60703Q38 9.80254 38 9.999L38 34.001Q38 34.1975 37.9807 34.393Q37.9615 34.5885 37.9232 34.7812Q37.8848 34.9738 37.8278 35.1618Q37.7708 35.3498 37.6956 35.5313Q37.6204 35.7129 37.5278 35.8861Q37.4352 36.0594 37.326 36.2227Q37.2169 36.3861 37.0923 36.5379Q36.9676 36.6898 36.8287 36.8287Q36.6898 36.9676 36.5379 37.0923Q36.3861 37.2169 36.2227 37.326Q36.0594 37.4352 35.8861 37.5278Q35.7129 37.6204 35.5313 37.6956Q35.3498 37.7708 35.1618 37.8278Q34.9738 37.8848 34.7812 37.9232Q34.5885 37.9615 34.393 37.9807Q34.1975 38 34.001 38L29.999 38Q29.8025 38 29.607 37.9807Q29.4115 37.9615 29.2188 37.9232Q29.0262 37.8848 28.8382 37.8278Q28.6502 37.7708 28.4686 37.6956Q28.2871 37.6204 28.1139 37.5278Q27.9406 37.4352 27.7773 37.326Q27.6139 37.2169 27.4621 37.0923Q27.3102 36.9676 27.1713 36.8287Q27.0324 36.6898 26.9077 36.5379Q26.7831 36.3861 26.6739 36.2227Q26.5648 36.0594 26.4722 35.8861Q26.3796 35.7129 26.3044 35.5313Q26.2292 35.3498 26.1722 35.1618Q26.1152 34.9738 26.0768 34.7812Q26.0385 34.5885 26.0193 34.393Q26 34.1975 26 34.001L26 9.999Q26 9.80254 26.0193 9.60703Q26.0385 9.41152 26.0768 9.21883Q26.1152 9.02615 26.1722 8.83815Q26.2292 8.65015 26.3044 8.46865Q26.3796 8.28715 26.4722 8.11388Q26.5648 7.94062 26.674 7.77727Q26.7831 7.61393 26.9077 7.46206Q27.0324 7.3102 27.1713 7.17128Q27.3102 7.03236 27.4621 6.90773Q27.6139 6.7831 27.7773 6.67395Q27.9406 6.56481 28.1139 6.4722Q28.2871 6.37959 28.4686 6.3044Q28.6502 6.22922 28.8382 6.1722Q29.0262 6.11517 29.2188 6.07684Q29.4115 6.03851 29.607 6.01926Q29.8025 6 29.999 6Z" id="Rectangle-Copy-2" fill="none" fill-rule="evenodd" stroke="#CCCCCC" stroke-width="4" />
    <path d="M49.999 6L54.001 6Q54.1975 6 54.393 6.01926Q54.5885 6.03851 54.7812 6.07684Q54.9738 6.11517 55.1618 6.1722Q55.3498 6.22922 55.5313 6.30441Q55.7129 6.37959 55.8861 6.4722Q56.0594 6.56481 56.2227 6.67395Q56.3861 6.7831 56.5379 6.90773Q56.6898 7.03236 56.8287 7.17128Q56.9676 7.3102 57.0923 7.46206Q57.2169 7.61393 57.326 7.77727Q57.4352 7.94062 57.5278 8.11388Q57.6204 8.28715 57.6956 8.46865Q57.7708 8.65015 57.8278 8.83815Q57.8848 9.02615 57.9232 9.21883Q57.9615 9.41152 57.9807 9.60703Q58 9.80254 58 9.999L58 30.001Q58 30.1975 57.9807 30.393Q57.9615 30.5885 57.9232 30.7812Q57.8848 30.9738 57.8278 31.1618Q57.7708 31.3498 57.6956 31.5313Q57.6204 31.7129 57.5278 31.8861Q57.4352 32.0594 57.326 32.2227Q57.2169 32.3861 57.0923 32.5379Q56.9676 32.6898 56.8287 32.8287Q56.6898 32.9676 56.5379 33.0923Q56.3861 33.2169 56.2227 33.326Q56.0594 33.4352 55.8861 33.5278Q55.7129 33.6204 55.5313 33.6956Q55.3498 33.7708 55.1618 33.8278Q54.9739 33.8848 54.7812 33.9232Q54.5885 33.9615 54.393 33.9807Q54.1975 34 54.001 34L49.999 34Q49.8025 34 49.607 33.9807Q49.4115 33.9615 49.2188 33.9232Q49.0262 33.8848 48.8382 33.8278Q48.6502 33.7708 48.4686 33.6956Q48.2871 33.6204 48.1139 33.5278Q47.9406 33.4352 47.7773 33.326Q47.6139 33.2169 47.4621 33.0923Q47.3102 32.9676 47.1713 32.8287Q47.0324 32.6898 46.9077 32.5379Q46.7831 32.3861 46.674 32.2227Q46.5648 32.0594 46.4722 31.8861Q46.3796 31.7129 46.3044 31.5313Q46.2292 31.3498 46.1722 31.1618Q46.1152 30.9738 46.0768 30.7812Q46.0385 30.5885 46.0193 30.393Q46 30.1975 46 30.001L46 9.999Q46 9.80254 46.0193 9.60703Q46.0385 9.41152 46.0768 9.21883Q46.1152 9.02615 46.1722 8.83815Q46.2292 8.65015 46.3044 8.46865Q46.3796 8.28715 46.4722 8.11388Q46.5648 7.94062 46.674 7.77727Q46.7831 7.61393 46.9077 7.46206Q47.0324 7.3102 47.1713 7.17128Q47.3102 7.03236 47.4621 6.90773Q47.6139 6.7831 47.7773 6.67395Q47.9406 6.56481 48.1139 6.4722Q48.2871 6.37959 48.4686 6.3044Q48.6501 6.22922 48.8381 6.1722Q49.0261 6.11517 49.2188 6.07684Q49.4115 6.03851 49.607 6.01926Q49.8025 6 49.999 6Z" id="Rectangle-Copy" fill="none" fill-rule="evenodd" stroke="#CCCCCC" stroke-width="4" />
  </g>
</svg>