<?xml version="1.0" encoding="utf-8"?>
<svg width="64px" height="64px" viewBox="0 0 64 64" version="1.1" xmlns:xlink="http://www.w3.org/1999/xlink" xmlns="http://www.w3.org/2000/svg">
  <defs>
    <rect width="64" height="64" id="artboard_1" />
    <clipPath id="clip_1">
      <use xlink:href="#artboard_1" clip-rule="evenodd" />
    </clipPath>
  </defs>
  <g id="board" clip-path="url(#clip_1)">
    <path d="M29.999 6L50.001 6Q50.1975 6 50.393 6.01926Q50.5885 6.03851 50.7812 6.07684Q50.9739 6.11517 51.1618 6.1722Q51.3498 6.22922 51.5313 6.30441Q51.7129 6.37959 51.8861 6.4722Q52.0594 6.56481 52.2227 6.67395Q52.3861 6.7831 52.5379 6.90773Q52.6898 7.03236 52.8287 7.17128Q52.9676 7.3102 53.0923 7.46206Q53.2169 7.61393 53.326 7.77727Q53.4352 7.94062 53.5278 8.11388Q53.6204 8.28715 53.6956 8.46865Q53.7708 8.65015 53.8278 8.83815Q53.8848 9.02615 53.9232 9.21883Q53.9615 9.41152 53.9807 9.60703Q54 9.80254 54 9.999L54 26.001Q54 26.1975 53.9807 26.393Q53.9615 26.5885 53.9232 26.7812Q53.8848 26.9738 53.8278 27.1618Q53.7708 27.3498 53.6956 27.5313Q53.6204 27.7129 53.5278 27.8861Q53.4352 28.0594 53.326 28.2227Q53.2169 28.3861 53.0923 28.5379Q52.9676 28.6898 52.8287 28.8287Q52.6898 28.9676 52.5379 29.0923Q52.3861 29.2169 52.2227 29.326Q52.0594 29.4352 51.8861 29.5278Q51.7128 29.6204 51.5313 29.6956Q51.3498 29.7708 51.1618 29.8278Q50.9739 29.8848 50.7812 29.9232Q50.5885 29.9615 50.393 29.9807Q50.1975 30 50.001 30L29.999 30Q29.8025 30 29.607 29.9807Q29.4115 29.9615 29.2188 29.9232Q29.0262 29.8848 28.8382 29.8278Q28.6502 29.7708 28.4686 29.6956Q28.2871 29.6204 28.1139 29.5278Q27.9406 29.4352 27.7773 29.326Q27.6139 29.2169 27.4621 29.0923Q27.3102 28.9676 27.1713 28.8287Q27.0324 28.6898 26.9077 28.5379Q26.7831 28.3861 26.6739 28.2227Q26.5648 28.0594 26.4722 27.8861Q26.3796 27.7129 26.3044 27.5313Q26.2292 27.3498 26.1722 27.1618Q26.1152 26.9738 26.0768 26.7812Q26.0385 26.5885 26.0193 26.393Q26 26.1975 26 26.001L26 9.999Q26 9.80254 26.0193 9.60703Q26.0385 9.41152 26.0768 9.21883Q26.1152 9.02615 26.1722 8.83815Q26.2292 8.65015 26.3044 8.46865Q26.3796 8.28715 26.4722 8.11388Q26.5648 7.94062 26.674 7.77727Q26.7831 7.61393 26.9077 7.46206Q27.0324 7.3102 27.1713 7.17128Q27.3102 7.03236 27.4621 6.90773Q27.6139 6.7831 27.7773 6.67395Q27.9406 6.56481 28.1139 6.4722Q28.2871 6.37959 28.4686 6.3044Q28.6502 6.22922 28.8382 6.1722Q29.0262 6.11517 29.2188 6.07684Q29.4115 6.03851 29.607 6.01926Q29.8025 6 29.999 6Z" id="Rectangle" fill="none" fill-rule="evenodd" stroke="#CCCCCC" stroke-width="4" />
    <path d="M13.999 38L26.001 38Q26.1975 38 26.393 38.0193Q26.5885 38.0385 26.7812 38.0768Q26.9738 38.1152 27.1618 38.1722Q27.3498 38.2292 27.5313 38.3044Q27.7129 38.3796 27.8861 38.4722Q28.0594 38.5648 28.2227 38.674Q28.3861 38.7831 28.5379 38.9077Q28.6898 39.0324 28.8287 39.1713Q28.9676 39.3102 29.0923 39.4621Q29.2169 39.6139 29.326 39.7773Q29.4352 39.9406 29.5278 40.1139Q29.6204 40.2871 29.6956 40.4686Q29.7708 40.6501 29.8278 40.8381Q29.8848 41.0261 29.9232 41.2188Q29.9615 41.4115 29.9807 41.607Q30 41.8025 30 41.999L30 50.001Q30 50.1975 29.9807 50.393Q29.9615 50.5885 29.9232 50.7812Q29.8848 50.9739 29.8278 51.1618Q29.7708 51.3498 29.6956 51.5313Q29.6204 51.7129 29.5278 51.8861Q29.4352 52.0594 29.326 52.2227Q29.2169 52.3861 29.0923 52.5379Q28.9676 52.6898 28.8287 52.8287Q28.6898 52.9676 28.5379 53.0923Q28.3861 53.2169 28.2227 53.326Q28.0594 53.4352 27.8861 53.5278Q27.7129 53.6204 27.5313 53.6956Q27.3498 53.7708 27.1618 53.8278Q26.9738 53.8848 26.7812 53.9232Q26.5885 53.9615 26.393 53.9807Q26.1975 54 26.001 54L13.999 54Q13.8025 54 13.607 53.9807Q13.4115 53.9615 13.2188 53.9232Q13.0262 53.8848 12.8382 53.8278Q12.6502 53.7708 12.4686 53.6956Q12.2871 53.6204 12.1139 53.5278Q11.9406 53.4352 11.7773 53.326Q11.6139 53.2169 11.4621 53.0923Q11.3102 52.9676 11.1713 52.8287Q11.0324 52.6898 10.9077 52.5379Q10.7831 52.3861 10.674 52.2227Q10.5648 52.0594 10.4722 51.8861Q10.3796 51.7128 10.3044 51.5313Q10.2292 51.3498 10.1722 51.1618Q10.1152 50.9739 10.0768 50.7812Q10.0385 50.5885 10.0193 50.393Q10 50.1975 10 50.001L10 41.999Q10 41.8025 10.0193 41.607Q10.0385 41.4115 10.0768 41.2188Q10.1152 41.0261 10.1722 40.8382Q10.2292 40.6502 10.3044 40.4686Q10.3796 40.2871 10.4722 40.1139Q10.5648 39.9406 10.674 39.7773Q10.7831 39.6139 10.9077 39.4621Q11.0324 39.3102 11.1713 39.1713Q11.3102 39.0324 11.4621 38.9077Q11.6139 38.7831 11.7773 38.674Q11.9406 38.5648 12.1139 38.4722Q12.2871 38.3796 12.4686 38.3044Q12.6502 38.2292 12.8382 38.1722Q13.0262 38.1152 13.2188 38.0768Q13.4115 38.0385 13.607 38.0193Q13.8025 38 13.999 38Z" id="Rectangle-Copy" fill="none" fill-rule="evenodd" stroke="#CCCCCC" stroke-width="4" />
    <path d="M41.999 38L54.001 38Q54.1975 38 54.393 38.0193Q54.5885 38.0385 54.7812 38.0768Q54.9738 38.1152 55.1618 38.1722Q55.3498 38.2292 55.5313 38.3044Q55.7129 38.3796 55.8861 38.4722Q56.0594 38.5648 56.2227 38.674Q56.3861 38.7831 56.5379 38.9077Q56.6898 39.0324 56.8287 39.1713Q56.9676 39.3102 57.0923 39.4621Q57.2169 39.6139 57.326 39.7773Q57.4352 39.9406 57.5278 40.1139Q57.6204 40.2871 57.6956 40.4686Q57.7708 40.6501 57.8278 40.8381Q57.8848 41.0261 57.9232 41.2188Q57.9615 41.4115 57.9807 41.607Q58 41.8025 58 41.999L58 54.001Q58 54.1975 57.9807 54.393Q57.9615 54.5885 57.9232 54.7812Q57.8848 54.9738 57.8278 55.1618Q57.7708 55.3498 57.6956 55.5313Q57.6204 55.7129 57.5278 55.8861Q57.4352 56.0594 57.326 56.2227Q57.2169 56.3861 57.0923 56.5379Q56.9676 56.6898 56.8287 56.8287Q56.6898 56.9676 56.5379 57.0923Q56.3861 57.2169 56.2227 57.326Q56.0594 57.4352 55.8861 57.5278Q55.7129 57.6204 55.5313 57.6956Q55.3498 57.7708 55.1618 57.8278Q54.9739 57.8848 54.7812 57.9232Q54.5885 57.9615 54.393 57.9807Q54.1975 58 54.001 58L41.999 58Q41.8025 58 41.607 57.9807Q41.4115 57.9615 41.2188 57.9232Q41.0261 57.8848 40.8382 57.8278Q40.6502 57.7708 40.4686 57.6956Q40.2871 57.6204 40.1139 57.5278Q39.9406 57.4352 39.7773 57.326Q39.6139 57.2169 39.4621 57.0923Q39.3102 56.9676 39.1713 56.8287Q39.0324 56.6898 38.9077 56.5379Q38.7831 56.3861 38.674 56.2227Q38.5648 56.0594 38.4722 55.8861Q38.3796 55.7129 38.3044 55.5313Q38.2292 55.3498 38.1722 55.1618Q38.1152 54.9739 38.0768 54.7812Q38.0385 54.5885 38.0193 54.393Q38 54.1975 38 54.001L38 41.999Q38 41.8025 38.0193 41.607Q38.0385 41.4115 38.0768 41.2188Q38.1152 41.0261 38.1722 40.8382Q38.2292 40.6502 38.3044 40.4686Q38.3796 40.2871 38.4722 40.1139Q38.5648 39.9406 38.6739 39.7773Q38.7831 39.6139 38.9077 39.4621Q39.0324 39.3102 39.1713 39.1713Q39.3102 39.0324 39.4621 38.9077Q39.6139 38.7831 39.7773 38.674Q39.9406 38.5648 40.1139 38.4722Q40.2871 38.3796 40.4686 38.3044Q40.6501 38.2292 40.8381 38.1722Q41.0261 38.1152 41.2188 38.0768Q41.4115 38.0385 41.607 38.0193Q41.8025 38 41.999 38Z" id="Rectangle-Copy-2" fill="none" fill-rule="evenodd" stroke="#CCCCCC" stroke-width="4" />
    <path d="M9.999 10L14.001 10Q14.1975 10 14.393 10.0193Q14.5885 10.0385 14.7812 10.0768Q14.9738 10.1152 15.1618 10.1722Q15.3498 10.2292 15.5313 10.3044Q15.7129 10.3796 15.8861 10.4722Q16.0594 10.5648 16.2227 10.674Q16.3861 10.7831 16.5379 10.9077Q16.6898 11.0324 16.8287 11.1713Q16.9676 11.3102 17.0923 11.4621Q17.2169 11.6139 17.326 11.7773Q17.4352 11.9406 17.5278 12.1139Q17.6204 12.2871 17.6956 12.4686Q17.7708 12.6502 17.8278 12.8382Q17.8848 13.0262 17.9232 13.2188Q17.9615 13.4115 17.9807 13.607Q18 13.8025 18 13.999L18 26.001Q18 26.1975 17.9807 26.393Q17.9615 26.5885 17.9232 26.7812Q17.8848 26.9738 17.8278 27.1618Q17.7708 27.3498 17.6956 27.5313Q17.6204 27.7129 17.5278 27.8861Q17.4352 28.0594 17.326 28.2227Q17.2169 28.3861 17.0923 28.5379Q16.9676 28.6898 16.8287 28.8287Q16.6898 28.9676 16.5379 29.0923Q16.3861 29.2169 16.2227 29.326Q16.0594 29.4352 15.8861 29.5278Q15.7129 29.6204 15.5313 29.6956Q15.3498 29.7708 15.1618 29.8278Q14.9738 29.8848 14.7812 29.9232Q14.5885 29.9615 14.393 29.9807Q14.1975 30 14.001 30L9.999 30Q9.80254 30 9.60703 29.9807Q9.41152 29.9615 9.21883 29.9232Q9.02615 29.8848 8.83815 29.8278Q8.65015 29.7708 8.46865 29.6956Q8.28715 29.6204 8.11388 29.5278Q7.94062 29.4352 7.77727 29.326Q7.61393 29.2169 7.46206 29.0923Q7.3102 28.9676 7.17128 28.8287Q7.03236 28.6898 6.90773 28.5379Q6.7831 28.3861 6.67395 28.2227Q6.56481 28.0594 6.4722 27.8861Q6.37959 27.7129 6.3044 27.5313Q6.22922 27.3498 6.17219 27.1618Q6.11517 26.9738 6.07684 26.7812Q6.03851 26.5885 6.01926 26.393Q6 26.1975 6 26.001L6 13.999Q6 13.8025 6.01926 13.607Q6.03851 13.4115 6.07684 13.2188Q6.11517 13.0262 6.17219 12.8382Q6.22922 12.6502 6.3044 12.4686Q6.37959 12.2871 6.4722 12.1139Q6.56481 11.9406 6.67395 11.7773Q6.7831 11.6139 6.90773 11.4621Q7.03236 11.3102 7.17128 11.1713Q7.3102 11.0324 7.46206 10.9077Q7.61393 10.7831 7.77727 10.674Q7.94062 10.5648 8.11388 10.4722Q8.28715 10.3796 8.46865 10.3044Q8.65015 10.2292 8.83815 10.1722Q9.02615 10.1152 9.21883 10.0768Q9.41152 10.0385 9.60703 10.0193Q9.80254 10 9.999 10L9.999 10Z" id="Rectangle-Copy-3" fill="none" fill-rule="evenodd" stroke="#CCCCCC" stroke-width="4" />
  </g>
</svg>