<?xml version="1.0" encoding="utf-8"?>
<svg width="64px" height="64px" viewBox="0 0 64 64" version="1.1" xmlns:xlink="http://www.w3.org/1999/xlink" xmlns="http://www.w3.org/2000/svg">
  <defs>
    <rect width="64" height="64" id="artboard_1" />
    <clipPath id="clip_1">
      <use xlink:href="#artboard_1" clip-rule="evenodd" />
    </clipPath>
  </defs>
  <g id="importFolder" clip-path="url(#clip_1)">
    <path d="M60 36L32 36" id="Line" fill="none" fill-rule="evenodd" stroke="#CCCCCC" stroke-width="4" stroke-linecap="round" stroke-linejoin="round" />
    <path d="M39 28L31 36L39 44" id="New-shape" fill="none" fill-rule="evenodd" stroke="#CCCCCC" stroke-width="4" stroke-linecap="round" stroke-linejoin="round" />
    <path d="M58 27.6667L58 22.999Q58 22.8026 57.9807 22.607Q57.9615 22.4115 57.9232 22.2188Q57.8848 22.0262 57.8278 21.8382Q57.7708 21.6502 57.6956 21.4687Q57.6204 21.2872 57.5278 21.1139Q57.4352 20.9406 57.326 20.7773Q57.2169 20.6139 57.0923 20.4621Q56.9676 20.3102 56.8287 20.1713Q56.6898 20.0324 56.5379 19.9077Q56.3861 19.7831 56.2227 19.674Q56.0594 19.5648 55.8861 19.4722Q55.7129 19.3796 55.5314 19.3044Q55.3498 19.2292 55.1619 19.1722Q54.9739 19.1152 54.7812 19.0768Q54.5885 19.0385 54.393 19.0193Q54.1975 19 54.001 19L33.6564 19Q33.2626 19 32.8763 18.9232Q32.49 18.8463 32.1261 18.6956Q31.7622 18.5449 31.4347 18.3261Q31.1072 18.1072 30.8287 17.8287L24.5046 11.5046Q24.2261 11.2261 23.8986 11.0073Q23.5711 10.7885 23.2072 10.6377Q22.8434 10.487 22.4571 10.4102Q22.0708 10.3333 21.6769 10.3333L9.999 10.3333Q9.80254 10.3333 9.60703 10.3526Q9.41152 10.3719 9.21883 10.4102Q9.02615 10.4485 8.83815 10.5055Q8.65015 10.5626 8.46865 10.6377Q8.28715 10.7129 8.11388 10.8055Q7.94062 10.8981 7.77727 11.0073Q7.61393 11.1164 7.46206 11.2411Q7.3102 11.3657 7.17128 11.5046Q7.03236 11.6435 6.90773 11.7954Q6.7831 11.9473 6.67395 12.1106Q6.56481 12.274 6.4722 12.4472Q6.37959 12.6205 6.3044 12.802Q6.22922 12.9835 6.17219 13.1715Q6.11517 13.3595 6.07684 13.5522Q6.03851 13.7449 6.01926 13.9404Q6 14.1359 6 14.3323L6 49.6677Q6 49.8641 6.01926 50.0596Q6.03851 50.2551 6.07684 50.4478Q6.11517 50.6405 6.1722 50.8285Q6.22922 51.0165 6.30441 51.198Q6.37959 51.3795 6.4722 51.5528Q6.56481 51.726 6.67395 51.8894Q6.7831 52.0527 6.90773 52.2046Q7.03236 52.3565 7.17128 52.4954Q7.3102 52.6343 7.46206 52.7589Q7.61393 52.8836 7.77727 52.9927Q7.94062 53.1019 8.11388 53.1945Q8.28715 53.2871 8.46865 53.3623Q8.65015 53.4374 8.83815 53.4945Q9.02615 53.5515 9.21883 53.5898Q9.41152 53.6281 9.60703 53.6474Q9.80254 53.6667 9.999 53.6667L54.001 53.6667Q54.1975 53.6667 54.393 53.6474Q54.5885 53.6282 54.7812 53.5898Q54.9739 53.5515 55.1618 53.4945Q55.3498 53.4375 55.5313 53.3623Q55.7129 53.2871 55.8861 53.1945Q56.0594 53.1019 56.2227 52.9927Q56.3861 52.8836 56.5379 52.7589Q56.6898 52.6343 56.8287 52.4954Q56.9676 52.3565 57.0923 52.2046Q57.2169 52.0527 57.326 51.8894Q57.4352 51.7261 57.5278 51.5528Q57.6204 51.3795 57.6956 51.198Q57.7708 51.0165 57.8278 50.8285Q57.8848 50.6405 57.9232 50.4478Q57.9615 50.2552 57.9807 50.0596Q58 49.8641 58 49.6677L58 45" id="Line-2" fill="none" fill-rule="evenodd" stroke="#CCCCCC" stroke-width="4" stroke-linecap="square" />
  </g>
</svg>