<?xml version="1.0" encoding="utf-8"?>
<svg width="64px" height="64px" viewBox="0 0 64 64" version="1.1" xmlns:xlink="http://www.w3.org/1999/xlink" xmlns="http://www.w3.org/2000/svg">
  <defs>
    <rect width="64" height="64" id="artboard_1" />
    <clipPath id="clip_1">
      <use xlink:href="#artboard_1" clip-rule="evenodd" />
    </clipPath>
  </defs>
  <g id="importFile" clip-path="url(#clip_1)">
    <path d="M60 36L32 36" id="Line" fill="none" fill-rule="evenodd" stroke="#CCCCCC" stroke-width="4" stroke-linecap="round" stroke-linejoin="round" />
    <path d="M39 28L31 36L39 44" id="New-shape" fill="none" fill-rule="evenodd" stroke="#CCCCCC" stroke-width="4" stroke-linecap="round" stroke-linejoin="round" />
    <path d="M53.6667 27.6667L53.6667 20.6564Q53.6667 20.2626 53.5898 19.8763Q53.513 19.49 53.3623 19.1261Q53.2115 18.7622 52.9927 18.4347Q52.7739 18.1072 52.4954 17.8287L41.838 7.17128Q41.5594 6.89277 41.232 6.67395Q40.9045 6.45513 40.5406 6.30441Q40.1767 6.15368 39.7904 6.07684Q39.4041 6 39.0102 6L14.3323 6Q14.1359 6 13.9404 6.01926Q13.7449 6.03851 13.5522 6.07684Q13.3595 6.11517 13.1715 6.1722Q12.9835 6.22922 12.802 6.30441Q12.6205 6.37959 12.4472 6.4722Q12.274 6.56481 12.1106 6.67395Q11.9473 6.7831 11.7954 6.90773Q11.6435 7.03236 11.5046 7.17128Q11.3657 7.3102 11.2411 7.46206Q11.1164 7.61393 11.0073 7.77727Q10.8981 7.94062 10.8055 8.11388Q10.7129 8.28715 10.6377 8.46865Q10.5626 8.65015 10.5055 8.83815Q10.4485 9.02615 10.4102 9.21883Q10.3719 9.41152 10.3526 9.60703Q10.3333 9.80254 10.3333 9.999L10.3333 54.001Q10.3333 54.1975 10.3526 54.393Q10.3719 54.5885 10.4102 54.7812Q10.4485 54.9738 10.5055 55.1618Q10.5626 55.3498 10.6377 55.5313Q10.7129 55.7129 10.8055 55.8861Q10.8981 56.0594 11.0073 56.2227Q11.1164 56.3861 11.2411 56.5379Q11.3657 56.6898 11.5046 56.8287Q11.6435 56.9676 11.7954 57.0923Q11.9473 57.2169 12.1106 57.326Q12.274 57.4352 12.4472 57.5278Q12.6205 57.6204 12.802 57.6956Q12.9835 57.7708 13.1715 57.8278Q13.3595 57.8848 13.5522 57.9232Q13.7449 57.9615 13.9404 57.9807Q14.1359 58 14.3323 58L49.6677 58Q49.8641 58 50.0596 57.9807Q50.2551 57.9615 50.4478 57.9232Q50.6405 57.8848 50.8285 57.8278Q51.0165 57.7708 51.198 57.6956Q51.3795 57.6204 51.5528 57.5278Q51.726 57.4352 51.8894 57.326Q52.0527 57.2169 52.2046 57.0923Q52.3565 56.9676 52.4954 56.8287Q52.6343 56.6898 52.7589 56.5379Q52.8836 56.3861 52.9927 56.2227Q53.1019 56.0594 53.1945 55.8861Q53.2871 55.7129 53.3623 55.5313Q53.4374 55.3498 53.4945 55.1618Q53.5515 54.9739 53.5898 54.7812Q53.6282 54.5885 53.6474 54.393Q53.6667 54.1975 53.6667 54.001L53.6667 45" id="Line-2" fill="none" fill-rule="evenodd" stroke="#CCCCCC" stroke-width="4" stroke-linecap="square" />
  </g>
</svg>