<?xml version="1.0" encoding="utf-8"?>
<svg width="64px" height="64px" viewBox="0 0 64 64" version="1.1" xmlns:xlink="http://www.w3.org/1999/xlink" xmlns="http://www.w3.org/2000/svg">
  <defs>
    <path d="M0 0L64 0L64 64L0 64L0 0Z" id="path_1" />
    <rect width="64" height="64" id="artboard_1" />
    <clipPath id="clip_1">
      <use xlink:href="#artboard_1" clip-rule="evenodd" />
    </clipPath>
    <clipPath id="mask_1">
      <use xlink:href="#path_1" />
    </clipPath>
  </defs>
  <g id="info" clip-path="url(#clip_1)">
    <g id="About-icon">
      <path d="M0 0L64 0L64 64L0 64L0 0Z" id="Background" fill="none" fill-rule="evenodd" stroke="none" />
      <g clip-path="url(#mask_1)">
        <path d="M32 5.33334C17.2964 5.33334 5.33334 17.2964 5.33334 32C5.33334 36.3671 6.48362 40.4465 8.34897 44.0859L5.45834 54.4375C4.78507 56.842 7.16258 59.2168 9.56772 58.5443L19.9245 55.6537C23.5614 57.5165 27.636 58.6667 32 58.6667C46.7036 58.6667 58.6667 46.7036 58.6667 32C58.6667 17.2964 46.7036 5.33334 32 5.33334L32 5.33334ZM32 9.33334C44.5417 9.33334 54.6667 19.4583 54.6667 32C54.6667 44.5417 44.5417 54.6667 32 54.6667C27.996 54.6667 24.2564 53.6244 20.9922 51.8047C20.5313 51.5475 19.9875 51.4829 19.4792 51.625L9.63022 54.375L12.3802 44.5313C12.5223 44.023 12.4577 43.4791 12.2005 43.0182C10.3782 39.7513 9.33334 36.006 9.33334 32C9.33334 19.4583 19.4583 9.33334 32 9.33334L32 9.33334ZM31.9687 17.3047C30.8652 17.322 29.9842 18.2298 30 19.3334L30 35.3334C29.9898 36.0546 30.3687 36.7255 30.9917 37.0891C31.6147 37.4527 32.3853 37.4527 33.0082 37.0891C33.6312 36.7255 34.0102 36.0546 34 35.3334L34 19.3334C34.0078 18.7925 33.7962 18.2716 33.4134 17.8894C33.0307 17.5072 32.5096 17.2963 31.9687 17.3047L31.9687 17.3047ZM32 41.3333C30.5273 41.3333 29.3333 42.5272 29.3333 44C29.3333 45.4728 30.5272 46.6667 32 46.6667C33.4728 46.6667 34.6667 45.4728 34.6667 44C34.6667 42.5273 33.4728 41.3334 32 41.3333L32 41.3333Z" id="Shape" fill="#CCCCCC" fill-rule="evenodd" stroke="none" />
      </g>
    </g>
  </g>
</svg>