<?xml version="1.0" encoding="utf-8"?>
<svg width="64px" height="64px" viewBox="0 0 64 64" version="1.1" xmlns:xlink="http://www.w3.org/1999/xlink" xmlns="http://www.w3.org/2000/svg">
  <defs>
    <rect width="64" height="64" id="artboard_1" />
    <clipPath id="clip_1">
      <use xlink:href="#artboard_1" clip-rule="evenodd" />
    </clipPath>
  </defs>
  <g id="locked" clip-path="url(#clip_1)">
    <path d="M31.999 7L32.001 7Q32.3447 7 32.6879 7.01686Q33.0311 7.03373 33.3731 7.06741Q33.7151 7.10109 34.0551 7.15152Q34.395 7.20194 34.7321 7.26899Q35.0691 7.33603 35.4025 7.41953Q35.7358 7.50303 36.0647 7.60279Q36.3936 7.70255 36.7171 7.81832Q37.0407 7.9341 37.3582 8.06561Q37.6757 8.19712 37.9863 8.34405Q38.297 8.49099 38.6001 8.65298Q38.9032 8.81498 39.1979 8.99166Q39.4927 9.16833 39.7784 9.35926Q40.0642 9.55018 40.3402 9.7549Q40.6162 9.95961 40.8819 10.1776Q41.1475 10.3956 41.4021 10.6264Q41.6568 10.8572 41.8998 11.1002Q42.1428 11.3432 42.3736 11.5978Q42.6044 11.8525 42.8224 12.1181Q43.0404 12.3838 43.2451 12.6598Q43.4498 12.9358 43.6407 13.2216Q43.8317 13.5073 44.0083 13.8021Q44.185 14.0968 44.347 14.3999Q44.509 14.703 44.6559 15.0137Q44.8029 15.3243 44.9344 15.6418Q45.0659 15.9593 45.1817 16.2829Q45.2974 16.6064 45.3972 16.9353Q45.497 17.2642 45.5805 17.5975Q45.664 17.9309 45.731 18.2679Q45.798 18.605 45.8485 18.9449Q45.8989 19.2849 45.9326 19.6269Q45.9663 19.9689 45.9831 20.3121Q46 20.6553 46 20.999L46 36.001Q46 36.3447 45.9831 36.6879Q45.9663 37.0311 45.9326 37.3731Q45.8989 37.7151 45.8485 38.0551Q45.798 38.395 45.731 38.7321Q45.664 39.0691 45.5805 39.4025Q45.497 39.7358 45.3972 40.0647Q45.2974 40.3936 45.1817 40.7171Q45.0659 41.0407 44.9344 41.3582Q44.8029 41.6757 44.6559 41.9863Q44.509 42.297 44.347 42.6001Q44.185 42.9032 44.0083 43.1979Q43.8317 43.4927 43.6407 43.7784Q43.4498 44.0642 43.2451 44.3402Q43.0404 44.6162 42.8224 44.8819Q42.6044 45.1475 42.3736 45.4021Q42.1428 45.6568 41.8998 45.8998Q41.6568 46.1428 41.4021 46.3736Q41.1475 46.6044 40.8819 46.8224Q40.6162 47.0404 40.3402 47.2451Q40.0642 47.4498 39.7784 47.6407Q39.4927 47.8317 39.1979 48.0083Q38.9032 48.185 38.6001 48.347Q38.297 48.509 37.9863 48.6559Q37.6757 48.8029 37.3582 48.9344Q37.0407 49.0659 36.7171 49.1817Q36.3936 49.2974 36.0647 49.3972Q35.7358 49.497 35.4025 49.5805Q35.0691 49.664 34.7321 49.731Q34.395 49.798 34.0551 49.8485Q33.7151 49.8989 33.3731 49.9326Q33.0311 49.9663 32.6879 49.9831Q32.3447 50 32.001 50L31.999 50Q31.6553 50 31.3121 49.9831Q30.9689 49.9663 30.6269 49.9326Q30.2849 49.8989 29.9449 49.8485Q29.605 49.7981 29.2679 49.731Q28.9309 49.664 28.5975 49.5805Q28.2642 49.497 27.9353 49.3972Q27.6064 49.2974 27.2829 49.1817Q26.9593 49.0659 26.6418 48.9344Q26.3243 48.8029 26.0137 48.6559Q25.703 48.509 25.3999 48.347Q25.0968 48.185 24.8021 48.0083Q24.5073 47.8317 24.2216 47.6407Q23.9358 47.4498 23.6598 47.2451Q23.3838 47.0404 23.1181 46.8224Q22.8525 46.6044 22.5978 46.3736Q22.3432 46.1428 22.1002 45.8998Q21.8572 45.6568 21.6264 45.4022Q21.3956 45.1475 21.1776 44.8819Q20.9596 44.6162 20.7549 44.3402Q20.5502 44.0642 20.3593 43.7784Q20.1683 43.4927 19.9917 43.1979Q19.815 42.9032 19.653 42.6001Q19.491 42.297 19.344 41.9863Q19.1971 41.6757 19.0656 41.3582Q18.9341 41.0407 18.8183 40.7171Q18.7025 40.3936 18.6028 40.0647Q18.503 39.7358 18.4195 39.4025Q18.336 39.0691 18.269 38.7321Q18.2019 38.395 18.1515 38.0551Q18.1011 37.7151 18.0674 37.3731Q18.0337 37.0311 18.0169 36.6879Q18 36.3447 18 36.001L18 20.999Q18 20.6553 18.0169 20.3121Q18.0337 19.9689 18.0674 19.6269Q18.1011 19.2849 18.1515 18.9449Q18.2019 18.605 18.269 18.2679Q18.336 17.9309 18.4195 17.5975Q18.503 17.2642 18.6028 16.9353Q18.7025 16.6064 18.8183 16.2829Q18.9341 15.9593 19.0656 15.6418Q19.1971 15.3243 19.3441 15.0137Q19.491 14.703 19.653 14.3999Q19.815 14.0968 19.9917 13.8021Q20.1683 13.5073 20.3593 13.2216Q20.5502 12.9358 20.7549 12.6598Q20.9596 12.3838 21.1776 12.1181Q21.3956 11.8525 21.6264 11.5978Q21.8572 11.3432 22.1002 11.1002Q22.3432 10.8572 22.5978 10.6264Q22.8525 10.3956 23.1181 10.1776Q23.3838 9.95961 23.6598 9.7549Q23.9358 9.55018 24.2216 9.35925Q24.5073 9.16833 24.8021 8.99166Q25.0968 8.81498 25.3999 8.65298Q25.703 8.49098 26.0137 8.34405Q26.3243 8.19712 26.6418 8.06561Q26.9593 7.9341 27.2829 7.81832Q27.6064 7.70255 27.9353 7.60279Q28.2642 7.50303 28.5975 7.41953Q28.9309 7.33603 29.2679 7.26899Q29.605 7.20194 29.9449 7.15152Q30.2849 7.10109 30.6269 7.06741Q30.9689 7.03373 31.3121 7.01686Q31.6553 7 31.999 7Z" id="Rectangle-3" fill="none" fill-rule="evenodd" stroke="#CCCCCC" stroke-width="6" />
    <path d="M7.999 24L56.001 24Q56.1975 24 56.393 24.0193Q56.5885 24.0385 56.7812 24.0768Q56.9739 24.1152 57.1618 24.1722Q57.3498 24.2292 57.5313 24.3044Q57.7129 24.3796 57.8861 24.4722Q58.0594 24.5648 58.2227 24.674Q58.3861 24.7831 58.5379 24.9077Q58.6898 25.0324 58.8287 25.1713Q58.9676 25.3102 59.0923 25.4621Q59.2169 25.6139 59.326 25.7773Q59.4352 25.9406 59.5278 26.1139Q59.6204 26.2871 59.6956 26.4686Q59.7708 26.6502 59.8278 26.8382Q59.8848 27.0261 59.9232 27.2188Q59.9615 27.4115 59.9807 27.607Q60 27.8025 60 27.999L60 56.001Q60 56.1975 59.9807 56.393Q59.9615 56.5885 59.9232 56.7812Q59.8848 56.9739 59.8278 57.1618Q59.7708 57.3498 59.6956 57.5313Q59.6204 57.7129 59.5278 57.8861Q59.4352 58.0594 59.326 58.2227Q59.2169 58.3861 59.0923 58.5379Q58.9676 58.6898 58.8287 58.8287Q58.6898 58.9676 58.5379 59.0923Q58.3861 59.2169 58.2227 59.326Q58.0594 59.4352 57.8861 59.5278Q57.7129 59.6204 57.5313 59.6956Q57.3498 59.7708 57.1619 59.8278Q56.9739 59.8848 56.7812 59.9232Q56.5885 59.9615 56.393 59.9807Q56.1975 60 56.001 60L7.999 60Q7.80254 60 7.60703 59.9807Q7.41152 59.9615 7.21883 59.9232Q7.02615 59.8848 6.83815 59.8278Q6.65015 59.7708 6.46865 59.6956Q6.28714 59.6204 6.11388 59.5278Q5.94062 59.4352 5.77727 59.326Q5.61392 59.2169 5.46206 59.0923Q5.3102 58.9676 5.17128 58.8287Q5.03236 58.6898 4.90773 58.5379Q4.7831 58.3861 4.67395 58.2227Q4.56481 58.0594 4.4722 57.8861Q4.37959 57.7129 4.30441 57.5313Q4.22922 57.3498 4.1722 57.1619Q4.11517 56.9739 4.07684 56.7812Q4.03851 56.5885 4.01926 56.393Q4 56.1975 4 56.001L4 27.999Q4 27.8025 4.01926 27.607Q4.03851 27.4115 4.07684 27.2188Q4.11517 27.0262 4.1722 26.8382Q4.22922 26.6502 4.30441 26.4686Q4.37959 26.2871 4.4722 26.1139Q4.56481 25.9406 4.67395 25.7773Q4.7831 25.6139 4.90773 25.4621Q5.03236 25.3102 5.17128 25.1713Q5.3102 25.0324 5.46206 24.9077Q5.61392 24.7831 5.77727 24.674Q5.94062 24.5648 6.11388 24.4722Q6.28714 24.3796 6.46865 24.3044Q6.65015 24.2292 6.83815 24.1722Q7.02615 24.1152 7.21883 24.0768Q7.41152 24.0385 7.60703 24.0193Q7.80254 24 7.999 24Z" id="Rectangle" fill="#CCCCCC" fill-rule="evenodd" stroke="none" />
    <path d="M26.4444 37.5556C26.4444 34.4873 28.9317 32 32 32C35.0682 32 37.5555 34.4873 37.5555 37.5556C37.5555 40.6238 35.0682 43.1111 32 43.1111C28.9317 43.1111 26.4444 40.6238 26.4444 37.5556Z" id="Ellipse" fill="#333333" fill-rule="evenodd" stroke="none" />
    <path d="M29.7778 38.6667L34.2222 38.6667L34.2222 52L29.7778 52L29.7778 38.6667Z" id="Rectangle-4" fill="#333333" fill-rule="evenodd" stroke="none" />
  </g>
</svg>