<?xml version="1.0" encoding="utf-8"?>
<svg width="64px" height="64px" viewBox="0 0 64 64" version="1.1" xmlns:xlink="http://www.w3.org/1999/xlink" xmlns="http://www.w3.org/2000/svg">
  <defs>
    <path d="M0 0L64 0L64 64L0 64L0 0Z" id="path_1" />
    <rect width="64" height="64" id="artboard_1" />
    <clipPath id="clip_1">
      <use xlink:href="#artboard_1" clip-rule="evenodd" />
    </clipPath>
    <clipPath id="mask_1">
      <use xlink:href="#path_1" />
    </clipPath>
  </defs>
  <g id="settings" clip-path="url(#clip_1)">
    <g id="Settings-icon">
      <path d="M0 0L64 0L64 64L0 64L0 0Z" id="Background" fill="none" fill-rule="evenodd" stroke="none" />
      <g clip-path="url(#mask_1)">
        <path d="M32 5.33334C29.8975 5.33334 27.8702 5.59925 25.9349 6.04949C25.1078 6.24254 24.4928 6.93689 24.401 7.78126L23.9765 11.6511C23.8377 12.9192 23.1052 14.0411 22 14.6797C20.897 15.317 19.5581 15.3876 18.3906 14.875L18.388 14.875L14.8333 13.3099C14.0563 12.968 13.148 13.1538 12.5677 13.7734C9.80437 16.7195 7.68356 20.2868 6.47915 24.2682C6.23328 25.0804 6.52659 25.9593 7.21092 26.4609L10.3646 28.7734C11.3944 29.5306 12 30.7237 12 32C12 33.277 11.3944 34.4711 10.3646 35.2266L7.21092 37.5365C6.52659 38.0382 6.23328 38.917 6.47915 39.7292C7.68343 43.7102 9.80255 47.2802 12.5677 50.2266C13.1486 50.8453 14.0568 51.0301 14.8333 50.6875L18.388 49.1224C19.5561 48.6087 20.8962 48.6826 22 49.3203C23.1052 49.9589 23.8377 51.0809 23.9765 52.349L24.401 56.2188C24.4935 57.0614 25.107 57.7542 25.9323 57.9479C27.8685 58.3998 29.8975 58.6667 32 58.6667C34.1025 58.6667 36.1298 58.4008 38.0651 57.9505C38.8922 57.7575 39.5072 57.0631 39.5989 56.2188L40.0234 52.349C40.1622 51.0809 40.8948 49.9589 42 49.3203C43.103 48.683 44.4418 48.6098 45.6094 49.1224L49.1667 50.6875C49.9432 51.0301 50.8513 50.8453 51.4323 50.2266C54.1956 47.2806 56.3164 43.7107 57.5208 39.7292C57.7667 38.917 57.4734 38.0382 56.789 37.5365L53.6354 35.2266C52.6056 34.4711 52 33.277 52 32C52 30.7231 52.6056 29.5289 53.6354 28.7734L56.789 26.4636C57.4734 25.9619 57.7667 25.083 57.5208 24.2708C56.3164 20.2894 54.1956 16.7195 51.4323 13.7734C50.8513 13.1547 49.9432 12.9699 49.1667 13.3125L45.6094 14.8776C44.4418 15.3902 43.103 15.317 42 14.6797C40.8948 14.0411 40.1622 12.9192 40.0234 11.6511L39.5989 7.78126C39.5065 6.93863 38.893 6.24578 38.0677 6.05209C36.1315 5.60022 34.1025 5.33334 32 5.33334L32 5.33334ZM32 9.33334C33.299 9.33334 34.5465 9.56652 35.7969 9.78647L36.0469 12.0859C36.324 14.6178 37.7959 16.8698 40 18.1432C42.2055 19.4175 44.8908 19.564 47.2213 18.5391L49.3359 17.6094C50.9597 19.5592 52.2453 21.7616 53.1432 24.1745L51.2682 25.5495C49.2154 27.0554 48 29.453 48 32C48 34.5471 49.2154 36.9446 51.2682 38.4505L53.1432 39.8255C52.2453 42.2384 50.9597 44.4408 49.3359 46.3906L47.2213 45.4609C44.8908 44.436 42.2055 44.5825 40 45.8568C37.7959 47.1302 36.324 49.3822 36.0469 51.9141L35.7969 54.2136C34.5466 54.4329 33.2984 54.6667 32 54.6667C30.7009 54.6667 29.4534 54.4335 28.2031 54.2136L27.9531 51.9141C27.6759 49.3822 26.2041 47.1302 24 45.8568C21.7944 44.5825 19.1092 44.436 16.7786 45.4609L14.664 46.3906C13.0399 44.4411 11.7546 42.2386 10.8568 39.8255L12.7318 38.4505C14.7846 36.9446 16 34.5471 16 32C16 29.453 14.7836 27.0538 12.7318 25.5469L10.8568 24.1719C11.7551 21.7581 13.0419 19.5571 14.6666 17.6068L16.7786 18.5365C19.1092 19.5614 21.7944 19.4175 24 18.1432C26.2041 16.8698 27.6759 14.6178 27.9531 12.0859L28.2031 9.78647C29.4533 9.56713 30.7016 9.33334 32 9.33334L32 9.33334ZM32 21.3333C26.1326 21.3333 21.3333 26.1327 21.3333 32C21.3333 37.8674 26.1326 42.6667 32 42.6667C37.8673 42.6667 42.6666 37.8674 42.6666 32C42.6666 26.1327 37.8673 21.3333 32 21.3333L32 21.3333ZM32 25.3333C35.7056 25.3333 38.6666 28.2944 38.6666 32C38.6666 35.7056 35.7056 38.6667 32 38.6667C28.2944 38.6667 25.3333 35.7056 25.3333 32C25.3333 28.2944 28.2944 25.3333 32 25.3333L32 25.3333Z" id="Shape" fill="#CCCCCC" fill-rule="evenodd" stroke="none" />
      </g>
    </g>
  </g>
</svg>